<svg width="254" height="49" viewBox="0 0 254 49" fill="none" xmlns="http://www.w3.org/2000/svg">
<g clip-path="url(#clip0_973_1372)">
<path d="M25.9611 11.7179C23.2235 8.07134 19.996 7.71758 18.3143 7.71758C13.4051 7.71758 11.8594 10.8035 11.8594 13.1928C11.8594 14.314 12.2077 15.3698 13.3343 16.3495C14.4555 17.3999 16.0012 17.9659 18.9456 19.0164C22.5921 20.279 26.0318 21.5417 28.4157 23.7188C30.522 25.6128 32.416 28.7695 32.416 33.5426C32.416 42.6644 25.8196 48.907 16.1372 48.907C7.50531 48.907 2.4546 43.644 0 40.0683L5.96507 34.3862C8.21285 38.9471 12.4907 40.6288 15.7889 40.6288C19.9307 40.6288 23.0167 38.1035 23.0167 34.1739C23.0167 32.4922 22.4561 31.1588 21.1934 29.9668C19.4409 28.3504 16.6325 27.4415 13.9657 26.5271C11.5111 25.6835 8.56117 24.5624 6.17733 22.4561C4.63163 21.1226 2.46005 18.5265 2.46005 13.7534C2.4546 6.87398 7.08624 0 17.4707 0C20.4151 0 25.9611 0.560586 30.7342 5.47523L25.9611 11.7179Z" fill="white"/>
<path d="M88.1263 24.4862C88.1263 38.7294 77.8834 48.9016 63.1503 48.9016C48.4172 48.9016 38.1743 38.7294 38.1743 24.4862C38.1743 10.2429 48.4172 0 63.1503 0C77.8834 0 88.1263 10.2429 88.1263 24.4862ZM78.727 24.4862C78.727 15.0161 72.2721 8.27816 63.1503 8.27816C54.0285 8.27816 47.5737 15.0161 47.5737 24.4862C47.5737 33.9562 54.0285 40.6234 63.1503 40.6234C72.2721 40.6234 78.727 33.9562 78.727 24.4862Z" fill="white"/>
<path d="M105.668 1.04883V30.4496C105.668 34.0254 106.86 36.2024 107.915 37.3944C109.249 39.0054 111.703 40.6218 115.35 40.6218C118.997 40.6218 121.457 39.0054 122.785 37.3944C123.835 36.2024 125.032 34.0254 125.032 30.4496V1.04883H134.154V29.6768C134.154 34.0962 133.452 38.5863 130.644 42.1675C127.275 46.5869 121.38 48.9054 115.35 48.9054C109.32 48.9054 103.42 46.5923 100.056 42.1675C97.248 38.5917 96.5459 34.0962 96.5459 29.6768V1.04883H105.668Z" fill="white"/>
<path d="M158.363 1.04883C164.818 1.04883 168.116 2.73058 170.293 4.55929C173.869 7.57448 174.925 11.5748 174.925 15.0852C174.925 19.6461 173.101 23.6464 169.449 26.101C168.258 26.9446 166.57 27.7175 164.328 28.1365L178.92 47.855H167.555L155.685 29.987C155.299 29.4047 154.64 29.0509 153.944 29.0509V47.855H144.822V1.04883H158.363ZM153.944 22.5905H156.54C158.292 22.5905 165.52 22.3783 165.52 15.5043C165.52 8.63034 158.363 8.48883 156.681 8.48883H153.944V22.5905Z" fill="white"/>
<path d="M253.439 8.90791H236.6V19.3631H252.737V27.2222H236.6V39.9905H253.439V47.8496H227.478V1.04883H253.439V8.90791Z" fill="white"/>
<path d="M215.025 38.8382C212.963 39.9921 210.622 40.6234 208.113 40.6234C200.254 40.6234 192.259 35.0121 192.259 24.6277C192.259 15.9957 198.366 8.27816 207.765 8.27816C208.973 8.27816 212.048 8.46865 215.265 10.3736L218.955 2.8247C214.715 0.555143 210.824 0 207.553 0C200.886 0 195.062 1.75251 190.365 6.17188C186.365 9.88916 182.86 15.9957 182.86 24.4862C182.86 31.3601 184.966 37.1837 190.365 42.3759C194.295 46.0932 199.275 48.9016 207.482 48.9016C212.321 48.9016 215.934 47.7423 218.699 46.349L215.025 38.8382Z" fill="white"/>
</g>
<defs>
<clipPath id="clip0_973_1372">
<rect width="253.439" height="48.9016" fill="white"/>
</clipPath>
</defs>
</svg>
