<svg width="248" height="171" viewBox="0 0 248 171" fill="none" xmlns="http://www.w3.org/2000/svg">
<rect x="55.375" y="18.8047" width="99" height="120" rx="6" stroke="url(#paint0_linear_1901_952)" stroke-linecap="round"/>
<rect x="65.6562" y="56.8047" width="43.7188" height="19" rx="2" stroke="url(#paint1_linear_1901_952)" stroke-linecap="round"/>
<rect x="65.6562" y="37.8047" width="43.7188" height="19" rx="2" stroke="url(#paint2_linear_1901_952)" stroke-linecap="round"/>
<rect x="65.6562" y="75.8047" width="43.7188" height="19" rx="2" stroke="url(#paint3_linear_1901_952)" stroke-linecap="round"/>
<path d="M109.375 26.5C109.375 25.3954 110.27 24.5 111.375 24.5H127.063C128.167 24.5 129.063 25.3954 129.063 26.5V102.805C129.063 103.909 128.167 104.805 127.063 104.805H119.219H111.375C110.27 104.805 109.375 103.909 109.375 102.805V26.5Z" stroke="url(#paint4_linear_1901_952)" stroke-linecap="round"/>
<path d="M141.812 26.5C141.812 25.3954 142.708 24.5 143.812 24.5H146.094C147.198 24.5 148.094 25.3954 148.094 26.5V102.805C148.094 103.909 147.198 104.805 146.094 104.805H143.812C142.708 104.805 141.812 103.909 141.812 102.805V26.5Z" stroke="url(#paint5_linear_1901_952)" stroke-linecap="round"/>
<path d="M135.344 26.5C135.344 25.3954 136.239 24.5 137.344 24.5H139.625C140.73 24.5 141.625 25.3954 141.625 26.5V102.805C141.625 103.909 140.73 104.805 139.625 104.805H137.344C136.239 104.805 135.344 103.909 135.344 102.805V26.5Z" stroke="url(#paint6_linear_1901_952)" stroke-linecap="round"/>
<path d="M129.062 26.5C129.062 25.3954 129.958 24.5 131.062 24.5H133.344C134.448 24.5 135.344 25.3954 135.344 26.5V102.805C135.344 103.909 134.448 104.805 133.344 104.805H131.062C129.958 104.805 129.062 103.909 129.062 102.805V26.5Z" stroke="url(#paint7_linear_1901_952)" stroke-linecap="round"/>
<rect x="55.375" y="104.805" width="39" height="28" rx="2" stroke="url(#paint8_linear_1901_952)" stroke-linecap="round"/>
<path d="M94.625 111.805C102.292 111.805 117.625 117.205 117.625 138.805" stroke="url(#paint9_linear_1901_952)" stroke-linecap="round"/>
<path d="M165.622 138.805C165.622 117.205 180.955 111.805 188.622 111.805H235.648" stroke="url(#paint10_linear_1901_952)" stroke-linecap="round"/>
<path d="M141.625 165.805C133.625 165.805 117.625 160.405 117.625 138.805" stroke="url(#paint11_linear_1901_952)" stroke-linecap="round"/>
<path d="M141.625 165.805C149.625 165.805 165.625 160.405 165.625 138.805" stroke="url(#paint12_linear_1901_952)" stroke-linecap="round"/>
<path d="M84.5 132.805C84.5 140.805 79.1 156.805 57.5 156.805" stroke="url(#paint13_linear_1901_952)" stroke-linecap="round"/>
<path d="M94.625 115.805C102.292 115.805 117.625 120.405 117.625 138.805" stroke="url(#paint14_linear_1901_952)" stroke-linecap="round"/>
<path d="M165.626 138.805C165.626 120.405 180.96 115.805 188.626 115.805H215.719" stroke="url(#paint15_linear_1901_952)" stroke-linecap="round"/>
<path d="M141.625 161.805C133.625 161.805 117.625 157.205 117.625 138.805" stroke="url(#paint16_linear_1901_952)" stroke-linecap="round"/>
<path d="M141.625 161.805C149.625 161.805 165.625 157.205 165.625 138.805" stroke="url(#paint17_linear_1901_952)" stroke-linecap="round"/>
<path d="M80.5 132.805C80.5 140.805 75.9 156.805 57.5 156.805" stroke="url(#paint18_linear_1901_952)" stroke-linecap="round"/>
<path d="M94.625 119.805C102.292 119.805 117.625 123.605 117.625 138.805" stroke="url(#paint19_linear_1901_952)" stroke-linecap="round"/>
<path d="M165.622 138.805C165.622 123.605 180.955 119.805 188.622 119.805H200.555" stroke="url(#paint20_linear_1901_952)" stroke-linecap="round"/>
<path d="M141.625 157.805C133.625 157.805 117.625 154.005 117.625 138.805" stroke="url(#paint21_linear_1901_952)" stroke-linecap="round"/>
<path d="M141.625 157.805C149.625 157.805 165.625 154.005 165.625 138.805" stroke="url(#paint22_linear_1901_952)" stroke-linecap="round"/>
<path d="M76.5 132.805C76.5 140.805 72.7 156.805 57.5 156.805" stroke="url(#paint23_linear_1901_952)" stroke-linecap="round"/>
<path d="M94.625 123.805C102.292 123.805 117.625 126.805 117.625 138.805" stroke="url(#paint24_linear_1901_952)" stroke-linecap="round"/>
<path d="M188.625 123.805C180.958 123.805 165.625 126.805 165.625 138.805" stroke="url(#paint25_linear_1901_952)" stroke-linecap="round"/>
<path d="M141.625 153.805C133.625 153.805 117.625 150.805 117.625 138.805" stroke="url(#paint26_linear_1901_952)" stroke-linecap="round"/>
<path d="M141.625 153.805C149.625 153.805 165.625 150.805 165.625 138.805" stroke="url(#paint27_linear_1901_952)" stroke-linecap="round"/>
<path d="M72.5 132.805C72.5 140.805 69.5 156.805 57.5 156.805" stroke="url(#paint28_linear_1901_952)" stroke-linecap="round"/>
<path d="M94.625 127.805C102.292 127.805 117.625 130.005 117.625 138.805" stroke="url(#paint29_linear_1901_952)" stroke-linecap="round"/>
<path d="M188.625 127.805C180.958 127.805 165.625 130.005 165.625 138.805" stroke="url(#paint30_linear_1901_952)" stroke-linecap="round"/>
<path d="M141.625 149.805C133.625 149.805 117.625 147.605 117.625 138.805" stroke="url(#paint31_linear_1901_952)" stroke-linecap="round"/>
<path d="M141.625 149.805C149.625 149.805 165.625 147.605 165.625 138.805" stroke="url(#paint32_linear_1901_952)" stroke-linecap="round"/>
<path d="M68.5 132.805C68.5 140.805 66.3 156.805 57.5 156.805" stroke="url(#paint33_linear_1901_952)" stroke-linecap="round"/>
<path d="M94.625 107.805C102.292 107.805 117.625 114.005 117.625 138.805" stroke="url(#paint34_linear_1901_952)" stroke-linecap="round"/>
<path d="M165.625 138.805C165.625 114.005 180.959 107.805 188.625 107.805H246.852" stroke="url(#paint35_linear_1901_952)" stroke-linecap="round"/>
<path d="M141.625 169.805C133.625 169.805 117.625 163.605 117.625 138.805" stroke="url(#paint36_linear_1901_952)" stroke-linecap="round"/>
<path d="M141.625 169.805C149.625 169.805 165.625 163.605 165.625 138.805" stroke="url(#paint37_linear_1901_952)" stroke-linecap="round"/>
<path d="M88.5 132.805C88.5 140.805 82.3 156.805 57.5 156.805" stroke="url(#paint38_linear_1901_952)" stroke-linecap="round"/>
<path d="M34.5 24.5C34.5 32.5 40.7312 48.5 65.6562 48.5" stroke="url(#paint39_linear_1901_952)" stroke-linecap="round"/>
<path d="M34.5 24.5C34.5 16.5 40.7312 0.5 65.6562 0.499999" stroke="url(#paint40_linear_1901_952)" stroke-linecap="round"/>
<path d="M30.5 24.5C30.5 16.5 37.5312 0.5 65.6562 0.499999" stroke="url(#paint41_linear_1901_952)" stroke-linecap="round"/>
<path d="M26.5 24.5C26.5 16.5 34.3312 0.499999 65.6562 0.499998" stroke="url(#paint42_linear_1901_952)" stroke-linecap="round"/>
<path d="M30.5078 24.5C30.5078 38.4349 37.5375 66.3047 65.6562 66.3047" stroke="url(#paint43_linear_1901_952)" stroke-linecap="round"/>
<path d="M26.5 24.5C26.5 44.7682 34.3312 85.3047 65.6562 85.3047" stroke="url(#paint44_linear_1901_952)" stroke-linecap="round"/>
<path d="M30.5 132.805C30.5 140.805 35.9 156.805 57.5 156.805M57.5 156.805C39.1 156.805 34.5 140.805 34.5 132.805C34.5 114.027 19.2777 98.8047 0.5 98.8047M57.5 156.805C42.3 156.805 38.5 140.805 38.5 132.805C38.5 111.818 21.4868 94.8047 0.5 94.8047M57.5 156.805C45.5 156.805 42.5 140.805 42.5 132.805C42.5 109.609 23.696 90.8047 0.5 90.8047M57.5 156.805C48.7 156.805 46.5 140.805 46.5 132.805C46.5 107.4 25.9051 86.8047 0.5 86.8047M57.5 156.805C32.7 156.805 26.5 140.805 26.5 132.805M0.5 106.805C14.8572 106.805 26.4961 118.444 26.4961 132.801M0.5 102.805C17.0707 102.805 30.5039 116.238 30.5039 132.809" stroke="url(#paint45_linear_1901_952)" stroke-linecap="round"/>
<defs>
<linearGradient id="paint0_linear_1901_952" x1="46.812" y1="3.90964" x2="146.578" y2="153.869" gradientUnits="userSpaceOnUse">
<stop stop-color="#FF88C8"/>
<stop offset="0.389423" stop-color="#FFFFE4"/>
<stop offset="0.677885" stop-color="#FFFFE4"/>
<stop offset="1" stop-color="#8793FF"/>
</linearGradient>
<linearGradient id="paint1_linear_1901_952" x1="61.8748" y1="54.4463" x2="69.6053" y2="86.8549" gradientUnits="userSpaceOnUse">
<stop stop-color="#FF88C8"/>
<stop offset="0.389423" stop-color="#FFFFE4"/>
<stop offset="0.677885" stop-color="#FFFFE4"/>
<stop offset="1" stop-color="#8793FF"/>
</linearGradient>
<linearGradient id="paint2_linear_1901_952" x1="61.8748" y1="35.4463" x2="69.6053" y2="67.8549" gradientUnits="userSpaceOnUse">
<stop stop-color="#FF88C8"/>
<stop offset="0.389423" stop-color="#FFFFE4"/>
<stop offset="0.677885" stop-color="#FFFFE4"/>
<stop offset="1" stop-color="#8793FF"/>
</linearGradient>
<linearGradient id="paint3_linear_1901_952" x1="61.8748" y1="73.4463" x2="69.6053" y2="105.855" gradientUnits="userSpaceOnUse">
<stop stop-color="#FF88C8"/>
<stop offset="0.389423" stop-color="#FFFFE4"/>
<stop offset="0.677885" stop-color="#FFFFE4"/>
<stop offset="1" stop-color="#8793FF"/>
</linearGradient>
<linearGradient id="paint4_linear_1901_952" x1="107.672" y1="14.5321" x2="161.581" y2="38.6116" gradientUnits="userSpaceOnUse">
<stop stop-color="#FF88C8"/>
<stop offset="0.389423" stop-color="#FFFFE4"/>
<stop offset="0.677885" stop-color="#FFFFE4"/>
<stop offset="1" stop-color="#8793FF"/>
</linearGradient>
<linearGradient id="paint5_linear_1901_952" x1="141.269" y1="14.5321" x2="161.49" y2="17.4137" gradientUnits="userSpaceOnUse">
<stop stop-color="#FF88C8"/>
<stop offset="0.389423" stop-color="#FFFFE4"/>
<stop offset="0.677885" stop-color="#FFFFE4"/>
<stop offset="1" stop-color="#8793FF"/>
</linearGradient>
<linearGradient id="paint6_linear_1901_952" x1="134.8" y1="14.5321" x2="155.021" y2="17.4137" gradientUnits="userSpaceOnUse">
<stop stop-color="#FF88C8"/>
<stop offset="0.389423" stop-color="#FFFFE4"/>
<stop offset="0.677885" stop-color="#FFFFE4"/>
<stop offset="1" stop-color="#8793FF"/>
</linearGradient>
<linearGradient id="paint7_linear_1901_952" x1="128.519" y1="14.5321" x2="148.74" y2="17.4137" gradientUnits="userSpaceOnUse">
<stop stop-color="#FF88C8"/>
<stop offset="0.389423" stop-color="#FFFFE4"/>
<stop offset="0.677885" stop-color="#FFFFE4"/>
<stop offset="1" stop-color="#8793FF"/>
</linearGradient>
<linearGradient id="paint8_linear_1901_952" x1="52.0017" y1="101.329" x2="69.2191" y2="145.022" gradientUnits="userSpaceOnUse">
<stop stop-color="#FF88C8"/>
<stop offset="0.389423" stop-color="#FFFFE4"/>
<stop offset="0.677885" stop-color="#FFFFE4"/>
<stop offset="1" stop-color="#8793FF"/>
</linearGradient>
<linearGradient id="paint9_linear_1901_952" x1="92.6356" y1="108.453" x2="114.797" y2="142.849" gradientUnits="userSpaceOnUse">
<stop stop-color="#FF88C8"/>
<stop offset="0.389423" stop-color="#FFFFE4"/>
<stop offset="0.677885" stop-color="#FFFFE4"/>
<stop offset="1" stop-color="#8793FF"/>
</linearGradient>
<linearGradient id="paint10_linear_1901_952" x1="241.705" y1="108.453" x2="231.846" y2="155.042" gradientUnits="userSpaceOnUse">
<stop stop-color="#FF88C8"/>
<stop offset="0.389423" stop-color="#FFFFE4"/>
<stop offset="0.677885" stop-color="#FFFFE4"/>
<stop offset="1" stop-color="#8793FF"/>
</linearGradient>
<linearGradient id="paint11_linear_1901_952" x1="143.701" y1="169.156" x2="121.942" y2="133.917" gradientUnits="userSpaceOnUse">
<stop stop-color="#FF88C8"/>
<stop offset="0.389423" stop-color="#FFFFE4"/>
<stop offset="0.677885" stop-color="#FFFFE4"/>
<stop offset="1" stop-color="#8793FF"/>
</linearGradient>
<linearGradient id="paint12_linear_1901_952" x1="139.549" y1="169.156" x2="161.308" y2="133.917" gradientUnits="userSpaceOnUse">
<stop stop-color="#FF88C8"/>
<stop offset="0.389423" stop-color="#FFFFE4"/>
<stop offset="0.677885" stop-color="#FFFFE4"/>
<stop offset="1" stop-color="#8793FF"/>
</linearGradient>
<linearGradient id="paint13_linear_1901_952" x1="87.8514" y1="130.729" x2="52.6123" y2="152.488" gradientUnits="userSpaceOnUse">
<stop stop-color="#FF88C8"/>
<stop offset="0.389423" stop-color="#FFFFE4"/>
<stop offset="0.677885" stop-color="#FFFFE4"/>
<stop offset="1" stop-color="#8793FF"/>
</linearGradient>
<linearGradient id="paint14_linear_1901_952" x1="92.6356" y1="112.95" x2="110.125" y2="144.814" gradientUnits="userSpaceOnUse">
<stop stop-color="#FF88C8"/>
<stop offset="0.389423" stop-color="#FFFFE4"/>
<stop offset="0.677885" stop-color="#FFFFE4"/>
<stop offset="1" stop-color="#8793FF"/>
</linearGradient>
<linearGradient id="paint15_linear_1901_952" x1="220.051" y1="112.95" x2="210.226" y2="151.937" gradientUnits="userSpaceOnUse">
<stop stop-color="#FF88C8"/>
<stop offset="0.389423" stop-color="#FFFFE4"/>
<stop offset="0.677885" stop-color="#FFFFE4"/>
<stop offset="1" stop-color="#8793FF"/>
</linearGradient>
<linearGradient id="paint16_linear_1901_952" x1="143.701" y1="164.66" x2="126.618" y2="132.182" gradientUnits="userSpaceOnUse">
<stop stop-color="#FF88C8"/>
<stop offset="0.389423" stop-color="#FFFFE4"/>
<stop offset="0.677885" stop-color="#FFFFE4"/>
<stop offset="1" stop-color="#8793FF"/>
</linearGradient>
<linearGradient id="paint17_linear_1901_952" x1="139.549" y1="164.66" x2="156.632" y2="132.182" gradientUnits="userSpaceOnUse">
<stop stop-color="#FF88C8"/>
<stop offset="0.389423" stop-color="#FFFFE4"/>
<stop offset="0.677885" stop-color="#FFFFE4"/>
<stop offset="1" stop-color="#8793FF"/>
</linearGradient>
<linearGradient id="paint18_linear_1901_952" x1="83.3549" y1="130.729" x2="50.8769" y2="147.812" gradientUnits="userSpaceOnUse">
<stop stop-color="#FF88C8"/>
<stop offset="0.389423" stop-color="#FFFFE4"/>
<stop offset="0.677885" stop-color="#FFFFE4"/>
<stop offset="1" stop-color="#8793FF"/>
</linearGradient>
<linearGradient id="paint19_linear_1901_952" x1="92.6356" y1="117.446" x2="105.518" y2="145.858" gradientUnits="userSpaceOnUse">
<stop stop-color="#FF88C8"/>
<stop offset="0.389423" stop-color="#FFFFE4"/>
<stop offset="0.677885" stop-color="#FFFFE4"/>
<stop offset="1" stop-color="#8793FF"/>
</linearGradient>
<linearGradient id="paint20_linear_1901_952" x1="203.576" y1="117.446" x2="194.188" y2="148.896" gradientUnits="userSpaceOnUse">
<stop stop-color="#FF88C8"/>
<stop offset="0.389423" stop-color="#FFFFE4"/>
<stop offset="0.677885" stop-color="#FFFFE4"/>
<stop offset="1" stop-color="#8793FF"/>
</linearGradient>
<linearGradient id="paint21_linear_1901_952" x1="143.701" y1="160.163" x2="131.181" y2="131.35" gradientUnits="userSpaceOnUse">
<stop stop-color="#FF88C8"/>
<stop offset="0.389423" stop-color="#FFFFE4"/>
<stop offset="0.677885" stop-color="#FFFFE4"/>
<stop offset="1" stop-color="#8793FF"/>
</linearGradient>
<linearGradient id="paint22_linear_1901_952" x1="139.549" y1="160.163" x2="152.069" y2="131.35" gradientUnits="userSpaceOnUse">
<stop stop-color="#FF88C8"/>
<stop offset="0.389423" stop-color="#FFFFE4"/>
<stop offset="0.677885" stop-color="#FFFFE4"/>
<stop offset="1" stop-color="#8793FF"/>
</linearGradient>
<linearGradient id="paint23_linear_1901_952" x1="78.8584" y1="130.729" x2="50.0457" y2="143.248" gradientUnits="userSpaceOnUse">
<stop stop-color="#FF88C8"/>
<stop offset="0.389423" stop-color="#FFFFE4"/>
<stop offset="0.677885" stop-color="#FFFFE4"/>
<stop offset="1" stop-color="#8793FF"/>
</linearGradient>
<linearGradient id="paint24_linear_1901_952" x1="92.6356" y1="121.943" x2="101.216" y2="145.913" gradientUnits="userSpaceOnUse">
<stop stop-color="#FF88C8"/>
<stop offset="0.389423" stop-color="#FFFFE4"/>
<stop offset="0.677885" stop-color="#FFFFE4"/>
<stop offset="1" stop-color="#8793FF"/>
</linearGradient>
<linearGradient id="paint25_linear_1901_952" x1="190.614" y1="121.943" x2="182.034" y2="145.913" gradientUnits="userSpaceOnUse">
<stop stop-color="#FF88C8"/>
<stop offset="0.389423" stop-color="#FFFFE4"/>
<stop offset="0.677885" stop-color="#FFFFE4"/>
<stop offset="1" stop-color="#8793FF"/>
</linearGradient>
<linearGradient id="paint26_linear_1901_952" x1="143.701" y1="155.667" x2="135.401" y2="131.472" gradientUnits="userSpaceOnUse">
<stop stop-color="#FF88C8"/>
<stop offset="0.389423" stop-color="#FFFFE4"/>
<stop offset="0.677885" stop-color="#FFFFE4"/>
<stop offset="1" stop-color="#8793FF"/>
</linearGradient>
<linearGradient id="paint27_linear_1901_952" x1="139.549" y1="155.667" x2="147.849" y2="131.472" gradientUnits="userSpaceOnUse">
<stop stop-color="#FF88C8"/>
<stop offset="0.389423" stop-color="#FFFFE4"/>
<stop offset="0.677885" stop-color="#FFFFE4"/>
<stop offset="1" stop-color="#8793FF"/>
</linearGradient>
<linearGradient id="paint28_linear_1901_952" x1="74.3619" y1="130.729" x2="50.1675" y2="139.028" gradientUnits="userSpaceOnUse">
<stop stop-color="#FF88C8"/>
<stop offset="0.389423" stop-color="#FFFFE4"/>
<stop offset="0.677885" stop-color="#FFFFE4"/>
<stop offset="1" stop-color="#8793FF"/>
</linearGradient>
<linearGradient id="paint29_linear_1901_952" x1="92.6356" y1="126.439" x2="97.5055" y2="144.991" gradientUnits="userSpaceOnUse">
<stop stop-color="#FF88C8"/>
<stop offset="0.389423" stop-color="#FFFFE4"/>
<stop offset="0.677885" stop-color="#FFFFE4"/>
<stop offset="1" stop-color="#8793FF"/>
</linearGradient>
<linearGradient id="paint30_linear_1901_952" x1="190.614" y1="126.439" x2="185.744" y2="144.991" gradientUnits="userSpaceOnUse">
<stop stop-color="#FF88C8"/>
<stop offset="0.389423" stop-color="#FFFFE4"/>
<stop offset="0.677885" stop-color="#FFFFE4"/>
<stop offset="1" stop-color="#8793FF"/>
</linearGradient>
<linearGradient id="paint31_linear_1901_952" x1="143.701" y1="151.17" x2="139.009" y2="132.52" gradientUnits="userSpaceOnUse">
<stop stop-color="#FF88C8"/>
<stop offset="0.389423" stop-color="#FFFFE4"/>
<stop offset="0.677885" stop-color="#FFFFE4"/>
<stop offset="1" stop-color="#8793FF"/>
</linearGradient>
<linearGradient id="paint32_linear_1901_952" x1="139.549" y1="151.17" x2="144.241" y2="132.52" gradientUnits="userSpaceOnUse">
<stop stop-color="#FF88C8"/>
<stop offset="0.389423" stop-color="#FFFFE4"/>
<stop offset="0.677885" stop-color="#FFFFE4"/>
<stop offset="1" stop-color="#8793FF"/>
</linearGradient>
<linearGradient id="paint33_linear_1901_952" x1="69.8654" y1="130.729" x2="51.2152" y2="135.42" gradientUnits="userSpaceOnUse">
<stop stop-color="#FF88C8"/>
<stop offset="0.389423" stop-color="#FFFFE4"/>
<stop offset="0.677885" stop-color="#FFFFE4"/>
<stop offset="1" stop-color="#8793FF"/>
</linearGradient>
<linearGradient id="paint34_linear_1901_952" x1="92.6356" y1="103.957" x2="119.356" y2="140.076" gradientUnits="userSpaceOnUse">
<stop stop-color="#FF88C8"/>
<stop offset="0.389423" stop-color="#FFFFE4"/>
<stop offset="0.677885" stop-color="#FFFFE4"/>
<stop offset="1" stop-color="#8793FF"/>
</linearGradient>
<linearGradient id="paint35_linear_1901_952" x1="253.877" y1="103.957" x2="242.663" y2="157.493" gradientUnits="userSpaceOnUse">
<stop stop-color="#FF88C8"/>
<stop offset="0.389423" stop-color="#FFFFE4"/>
<stop offset="0.677885" stop-color="#FFFFE4"/>
<stop offset="1" stop-color="#8793FF"/>
</linearGradient>
<linearGradient id="paint36_linear_1901_952" x1="143.701" y1="173.653" x2="117.333" y2="136.46" gradientUnits="userSpaceOnUse">
<stop stop-color="#FF88C8"/>
<stop offset="0.389423" stop-color="#FFFFE4"/>
<stop offset="0.677885" stop-color="#FFFFE4"/>
<stop offset="1" stop-color="#8793FF"/>
</linearGradient>
<linearGradient id="paint37_linear_1901_952" x1="139.549" y1="173.653" x2="165.917" y2="136.46" gradientUnits="userSpaceOnUse">
<stop stop-color="#FF88C8"/>
<stop offset="0.389423" stop-color="#FFFFE4"/>
<stop offset="0.677885" stop-color="#FFFFE4"/>
<stop offset="1" stop-color="#8793FF"/>
</linearGradient>
<linearGradient id="paint38_linear_1901_952" x1="92.3479" y1="130.729" x2="55.1553" y2="157.096" gradientUnits="userSpaceOnUse">
<stop stop-color="#FF88C8"/>
<stop offset="0.389423" stop-color="#FFFFE4"/>
<stop offset="0.677885" stop-color="#FFFFE4"/>
<stop offset="1" stop-color="#8793FF"/>
</linearGradient>
<linearGradient id="paint39_linear_1901_952" x1="30.6327" y1="22.4241" x2="67.8868" y2="48.9685" gradientUnits="userSpaceOnUse">
<stop stop-color="#FF88C8"/>
<stop offset="0.389423" stop-color="#FFFFE4"/>
<stop offset="0.677885" stop-color="#FFFFE4"/>
<stop offset="1" stop-color="#8793FF"/>
</linearGradient>
<linearGradient id="paint40_linear_1901_952" x1="30.6327" y1="26.5759" x2="67.8868" y2="0.0315249" gradientUnits="userSpaceOnUse">
<stop stop-color="#FF88C8"/>
<stop offset="0.389423" stop-color="#FFFFE4"/>
<stop offset="0.677885" stop-color="#FFFFE4"/>
<stop offset="1" stop-color="#8793FF"/>
</linearGradient>
<linearGradient id="paint41_linear_1901_952" x1="26.1362" y1="26.5759" x2="64.6311" y2="-4.37401" gradientUnits="userSpaceOnUse">
<stop stop-color="#FF88C8"/>
<stop offset="0.389423" stop-color="#FFFFE4"/>
<stop offset="0.677885" stop-color="#FFFFE4"/>
<stop offset="1" stop-color="#8793FF"/>
</linearGradient>
<linearGradient id="paint42_linear_1901_952" x1="21.6397" y1="26.5759" x2="60.8153" y2="-8.50496" gradientUnits="userSpaceOnUse">
<stop stop-color="#FF88C8"/>
<stop offset="0.389423" stop-color="#FFFFE4"/>
<stop offset="0.677885" stop-color="#FFFFE4"/>
<stop offset="1" stop-color="#8793FF"/>
</linearGradient>
<linearGradient id="paint43_linear_1901_952" x1="26.145" y1="20.8841" x2="78.3847" y2="44.9913" gradientUnits="userSpaceOnUse">
<stop stop-color="#FF88C8"/>
<stop offset="0.389423" stop-color="#FFFFE4"/>
<stop offset="0.677885" stop-color="#FFFFE4"/>
<stop offset="1" stop-color="#8793FF"/>
</linearGradient>
<linearGradient id="paint44_linear_1901_952" x1="21.6397" y1="19.2407" x2="84.3902" y2="41.4199" gradientUnits="userSpaceOnUse">
<stop stop-color="#FF88C8"/>
<stop offset="0.389423" stop-color="#FFFFE4"/>
<stop offset="0.677885" stop-color="#FFFFE4"/>
<stop offset="1" stop-color="#8793FF"/>
</linearGradient>
<linearGradient id="paint45_linear_1901_952" x1="-4.43023" y1="78.1159" x2="54.0571" y2="164.887" gradientUnits="userSpaceOnUse">
<stop stop-color="#FF88C8"/>
<stop offset="0.389423" stop-color="#FFFFE4"/>
<stop offset="0.677885" stop-color="#FFFFE4"/>
<stop offset="1" stop-color="#8793FF"/>
</linearGradient>
</defs>
</svg>
